<svg xmlns="http://www.w3.org/2000/svg" version="1.1" xmlns:xlink="http://www.w3.org/1999/xlink" xmlns:svgjs="http://svgjs.dev/svgjs" viewBox="0 0 14.755658333523012 3.9490304924660844"><g transform="matrix(1,0,0,1,4.5323817435981635,0.6691687551690786)"><g><path d=" M 1.0635000000000001 1.2225 L 0.7695 1.2225 L 0.378 0.6315 L 0.378 1.2225 L 0.084 1.2225 L 0.084 0.1649999999999998 L 0.378 0.1649999999999998 L 0.7695 0.7634999999999998 L 0.7695 0.1649999999999998 L 1.0635000000000001 0.1649999999999998 L 1.0635000000000001 1.2225 M 1.25327197265625 0.26024999999999987 Q 1.20602197265625 0.2174999999999998 1.20602197265625 0.1529999999999998 Q 1.20602197265625 0.08699999999999997 1.25327197265625 0.04349999999999987 Q 1.30052197265625 0 1.3785219726562499 0 Q 1.4550219726562499 0 1.50227197265625 0.04349999999999987 Q 1.54952197265625 0.08699999999999997 1.54952197265625 0.1529999999999998 Q 1.54952197265625 0.2174999999999998 1.50227197265625 0.26024999999999987 Q 1.4550219726562499 0.30299999999999994 1.3785219726562499 0.30299999999999994 Q 1.30052197265625 0.30299999999999994 1.25327197265625 0.26024999999999987 M 1.52402197265625 0.3809999999999999 L 1.52402197265625 1.2225 L 1.23002197265625 1.2225 L 1.23002197265625 0.3809999999999999 L 1.52402197265625 0.3809999999999999 M 2.5964970703125 0.3809999999999999 L 2.0624970703125 1.623 L 1.7429970703125 1.623 L 1.9439970703124998 1.1864999999999999 L 1.5989970703124998 0.3809999999999999 L 1.9259970703125 0.3809999999999999 L 2.1029970703125 0.8579999999999999 L 2.2739970703125 0.3809999999999999 L 2.5964970703125 0.3809999999999999 M 2.670791015625 0.573 Q 2.718041015625 0.4754999999999999 2.799791015625 0.42299999999999993 Q 2.881541015625 0.37049999999999994 2.9820410156249997 0.37049999999999994 Q 3.069041015625 0.37049999999999994 3.132041015625 0.4049999999999999 Q 3.1950410156249998 0.4394999999999999 3.2295410156249997 0.4979999999999999 L 3.2295410156249997 0.3809999999999999 L 3.5235410156249998 0.3809999999999999 L 3.5235410156249998 1.2225 L 3.2295410156249997 1.2225 L 3.2295410156249997 1.1055 Q 3.1950410156249998 1.164 3.131291015625 1.1985 Q 3.067541015625 1.2329999999999999 2.9820410156249997 1.2329999999999999 Q 2.881541015625 1.2329999999999999 2.799791015625 1.1804999999999999 Q 2.718041015625 1.128 2.670791015625 1.02975 Q 2.623541015625 0.9315 2.623541015625 0.8009999999999999 Q 2.623541015625 0.6704999999999999 2.670791015625 0.573 M 3.185291015625 0.6734999999999999 Q 3.141041015625 0.6269999999999999 3.0765410156249997 0.6269999999999999 Q 3.010541015625 0.6269999999999999 2.967041015625 0.67275 Q 2.9235410156249997 0.7184999999999999 2.9235410156249997 0.8009999999999999 Q 2.9235410156249997 0.8819999999999999 2.967041015625 0.9292499999999999 Q 3.010541015625 0.9764999999999999 3.0765410156249997 0.9764999999999999 Q 3.141041015625 0.9764999999999999 3.185291015625 0.9299999999999999 Q 3.2295410156249997 0.8835 3.2295410156249997 0.8009999999999999 Q 3.2295410156249997 0.7199999999999999 3.185291015625 0.6734999999999999 M 4.26899853515625 0.40049999999999986 L 4.26899853515625 0.573 L 4.60649853515625 0.573 L 4.60649853515625 0.7965 L 4.26899853515625 0.7965 L 4.26899853515625 0.9869999999999999 L 4.65149853515625 0.9869999999999999 L 4.65149853515625 1.2225 L 3.97499853515625 1.2225 L 3.97499853515625 0.1649999999999998 L 4.65149853515625 0.1649999999999998 L 4.65149853515625 0.40049999999999986 L 4.26899853515625 0.40049999999999986 M 4.950708984375 1.19475 Q 4.861458984375 1.1564999999999999 4.809708984375 1.08975 Q 4.757958984375 1.023 4.751958984374999 0.9389999999999998 L 5.036958984375 0.9389999999999998 Q 5.042958984375 0.9794999999999999 5.074458984374999 1.002 Q 5.1059589843749995 1.0245 5.1524589843749995 1.0245 Q 5.188458984375 1.0245 5.209458984375 1.0094999999999998 Q 5.230458984375 0.9944999999999999 5.230458984375 0.9704999999999999 Q 5.230458984375 0.9389999999999998 5.195958984374999 0.9239999999999999 Q 5.161458984375 0.9089999999999999 5.0819589843749995 0.8909999999999999 Q 4.991958984375 0.8729999999999999 4.931958984375 0.8504999999999999 Q 4.8719589843749995 0.8279999999999998 4.827708984375 0.7769999999999999 Q 4.783458984375 0.726 4.783458984375 0.6389999999999999 Q 4.783458984375 0.564 4.8239589843749995 0.5032499999999999 Q 4.864458984374999 0.4424999999999999 4.943208984375 0.40649999999999986 Q 5.021958984375 0.37049999999999994 5.132958984375 0.37049999999999994 Q 5.297958984375 0.37049999999999994 5.392458984375 0.4514999999999999 Q 5.486958984375 0.5324999999999999 5.501958984374999 0.6644999999999999 L 5.236458984375 0.6644999999999999 Q 5.228958984375 0.6239999999999999 5.201208984375 0.60225 Q 5.173458984374999 0.5804999999999999 5.126958984374999 0.5804999999999999 Q 5.090958984375 0.5804999999999999 5.072208984375 0.5939999999999999 Q 5.053458984374999 0.6074999999999999 5.053458984374999 0.6315 Q 5.053458984374999 0.6614999999999999 5.087958984375 0.6772499999999999 Q 5.122458984374999 0.693 5.1989589843749995 0.7094999999999999 Q 5.290458984374999 0.7289999999999999 5.351208984375 0.7529999999999999 Q 5.411958984375 0.7769999999999999 5.4577089843749995 0.8302499999999999 Q 5.5034589843749995 0.8835 5.5034589843749995 0.9749999999999999 Q 5.5034589843749995 1.0485 5.460708984375 1.107 Q 5.417958984375 1.1655 5.3392089843749995 1.19925 Q 5.260458984375 1.2329999999999999 5.1539589843749996 1.2329999999999999 Q 5.039958984375 1.2329999999999999 4.950708984375 1.19475 M 6.142448730468749 0.972 L 6.142448730468749 1.2225 L 6.01494873046875 1.2225 Q 5.692448730468749 1.2225 5.692448730468749 0.9029999999999999 L 5.692448730468749 0.6255 L 5.58894873046875 0.6255 L 5.58894873046875 0.3809999999999999 L 5.692448730468749 0.3809999999999999 L 5.692448730468749 0.17699999999999982 L 5.98794873046875 0.17699999999999982 L 5.98794873046875 0.3809999999999999 L 6.140948730468749 0.3809999999999999 L 6.140948730468749 0.6255 L 5.98794873046875 0.6255 L 5.98794873046875 0.9075 Q 5.98794873046875 0.942 6.0036987304687495 0.9569999999999999 Q 6.019448730468749 0.972 6.05694873046875 0.972 L 6.142448730468749 0.972 M 6.275229492187499 0.573 Q 6.322479492187499 0.4754999999999999 6.4042294921875 0.42299999999999993 Q 6.485979492187499 0.37049999999999994 6.586479492187499 0.37049999999999994 Q 6.673479492187499 0.37049999999999994 6.7364794921875 0.4049999999999999 Q 6.7994794921874995 0.4394999999999999 6.8339794921875 0.4979999999999999 L 6.8339794921875 0.3809999999999999 L 7.1279794921874995 0.3809999999999999 L 7.1279794921874995 1.2225 L 6.8339794921875 1.2225 L 6.8339794921875 1.1055 Q 6.7994794921874995 1.164 6.7357294921875 1.1985 Q 6.6719794921875 1.2329999999999999 6.586479492187499 1.2329999999999999 Q 6.485979492187499 1.2329999999999999 6.4042294921875 1.1804999999999999 Q 6.322479492187499 1.128 6.275229492187499 1.02975 Q 6.227979492187499 0.9315 6.227979492187499 0.8009999999999999 Q 6.227979492187499 0.6704999999999999 6.275229492187499 0.573 M 6.789729492187499 0.6734999999999999 Q 6.745479492187499 0.6269999999999999 6.680979492187499 0.6269999999999999 Q 6.6149794921875 0.6269999999999999 6.5714794921875 0.67275 Q 6.5279794921875 0.7184999999999999 6.5279794921875 0.8009999999999999 Q 6.5279794921875 0.8819999999999999 6.5714794921875 0.9292499999999999 Q 6.6149794921875 0.9764999999999999 6.680979492187499 0.9764999999999999 Q 6.745479492187499 0.9764999999999999 6.789729492187499 0.9299999999999999 Q 6.8339794921875 0.8835 6.8339794921875 0.8009999999999999 Q 6.8339794921875 0.7199999999999999 6.789729492187499 0.6734999999999999 M 7.790968505859374 0.972 L 7.790968505859374 1.2225 L 7.663468505859375 1.2225 Q 7.340968505859374 1.2225 7.340968505859374 0.9029999999999999 L 7.340968505859374 0.6255 L 7.237468505859375 0.6255 L 7.237468505859375 0.3809999999999999 L 7.340968505859374 0.3809999999999999 L 7.340968505859374 0.17699999999999982 L 7.636468505859375 0.17699999999999982 L 7.636468505859375 0.3809999999999999 L 7.789468505859374 0.3809999999999999 L 7.789468505859374 0.6255 L 7.636468505859375 0.6255 L 7.636468505859375 0.9075 Q 7.636468505859375 0.942 7.652218505859374 0.9569999999999999 Q 7.667968505859374 0.972 7.705468505859375 0.972 L 7.790968505859374 0.972 M 8.723999267578124 0.861 L 8.167499267578124 0.861 Q 8.171999267578125 0.9299999999999999 8.205749267578124 0.9637499999999999 Q 8.239499267578125 0.9974999999999999 8.291999267578124 0.9974999999999999 Q 8.365499267578125 0.9974999999999999 8.396999267578124 0.9315 L 8.710499267578124 0.9315 Q 8.690999267578125 1.0185 8.634749267578124 1.0867499999999999 Q 8.578499267578124 1.1549999999999998 8.492999267578124 1.194 Q 8.407499267578125 1.2329999999999999 8.303999267578124 1.2329999999999999 Q 8.179499267578125 1.2329999999999999 8.082749267578125 1.1804999999999999 Q 7.985999267578125 1.128 7.931249267578124 1.0305 Q 7.876499267578124 0.9329999999999999 7.876499267578124 0.8009999999999999 Q 7.876499267578124 0.6689999999999999 7.930499267578124 0.5722499999999999 Q 7.984499267578125 0.4754999999999999 8.081249267578125 0.42299999999999993 Q 8.177999267578125 0.37049999999999994 8.303999267578124 0.37049999999999994 Q 8.428499267578124 0.37049999999999994 8.524499267578124 0.4214999999999999 Q 8.620499267578124 0.4724999999999999 8.674499267578124 0.5677499999999999 Q 8.728499267578124 0.6629999999999999 8.728499267578124 0.7919999999999999 Q 8.728499267578124 0.8264999999999999 8.723999267578124 0.861 M 8.428499267578124 0.7184999999999999 Q 8.428499267578124 0.6644999999999999 8.392499267578124 0.6337499999999999 Q 8.356499267578124 0.6029999999999999 8.302499267578124 0.6029999999999999 Q 8.248499267578124 0.6029999999999999 8.213999267578124 0.6322499999999999 Q 8.179499267578125 0.6614999999999999 8.168999267578124 0.7184999999999999 L 8.428499267578124 0.7184999999999999 M 9.002291015625 1.19475 Q 8.913041015625 1.1564999999999999 8.861291015625 1.08975 Q 8.809541015625 1.023 8.803541015625 0.9389999999999998 L 9.088541015625 0.9389999999999998 Q 9.094541015625 0.9794999999999999 9.126041015624999 1.002 Q 9.157541015625 1.0245 9.204041015625 1.0245 Q 9.240041015625 1.0245 9.261041015624999 1.0094999999999998 Q 9.282041015625 0.9944999999999999 9.282041015625 0.9704999999999999 Q 9.282041015625 0.9389999999999998 9.247541015625 0.9239999999999999 Q 9.213041015624999 0.9089999999999999 9.133541015625 0.8909999999999999 Q 9.043541015625 0.8729999999999999 8.983541015624999 0.8504999999999999 Q 8.923541015625 0.8279999999999998 8.879291015625 0.7769999999999999 Q 8.835041015624999 0.726 8.835041015624999 0.6389999999999999 Q 8.835041015624999 0.564 8.875541015625 0.5032499999999999 Q 8.916041015625 0.4424999999999999 8.994791015625 0.40649999999999986 Q 9.073541015624999 0.37049999999999994 9.184541015625 0.37049999999999994 Q 9.349541015625 0.37049999999999994 9.444041015625 0.4514999999999999 Q 9.538541015624999 0.5324999999999999 9.553541015625 0.6644999999999999 L 9.288041015625 0.6644999999999999 Q 9.280541015625 0.6239999999999999 9.252791015625 0.60225 Q 9.225041015625 0.5804999999999999 9.178541015625 0.5804999999999999 Q 9.142541015625 0.5804999999999999 9.123791015624999 0.5939999999999999 Q 9.105041015625 0.6074999999999999 9.105041015625 0.6315 Q 9.105041015625 0.6614999999999999 9.139541015625 0.6772499999999999 Q 9.174041015624999 0.693 9.250541015625 0.7094999999999999 Q 9.342041015625 0.7289999999999999 9.402791015624999 0.7529999999999999 Q 9.463541015625 0.7769999999999999 9.509291015625 0.8302499999999999 Q 9.555041015625 0.8835 9.555041015625 0.9749999999999999 Q 9.555041015625 1.0485 9.512291015625 1.107 Q 9.469541015625 1.1655 9.390791015625 1.19925 Q 9.312041015624999 1.2329999999999999 9.205541015625 1.2329999999999999 Q 9.091541015625 1.2329999999999999 9.002291015625 1.19475" fill="#ffffff" fill-rule="nonzero"></path></g><g><path d=" M 0.5454545454545454 2.1241159090909094 L 0.42886363636363634 2.4963886363636365 L 0.3811363636363636 2.4963886363636365 L 0.27818181818181814 2.1841159090909095 L 0.1752272727272727 2.4963886363636365 L 0.1268181818181818 2.4963886363636365 L 0.010227272727272727 2.1241159090909094 L 0.05863636363636363 2.1241159090909094 L 0.15136363636363634 2.4479795454545457 L 0.2556818181818182 2.1241159090909094 L 0.3034090909090909 2.1241159090909094 L 0.4063636363636363 2.4486613636363637 L 0.49840909090909086 2.1241159090909094 L 0.5454545454545454 2.1241159090909094 M 1.1011380282315342 2.1241159090909094 L 0.984547119140625 2.4963886363636365 L 0.9368198464133523 2.4963886363636365 L 0.8338653009588068 2.1841159090909095 L 0.7309107555042613 2.4963886363636365 L 0.6825016645951705 2.4963886363636365 L 0.5659107555042614 2.1241159090909094 L 0.6143198464133522 2.1241159090909094 L 0.707047119140625 2.4479795454545457 L 0.8113653009588069 2.1241159090909094 L 0.8590925736860795 2.1241159090909094 L 0.962047119140625 2.4486613636363637 L 1.0540925736860796 2.1241159090909094 L 1.1011380282315342 2.1241159090909094 M 1.6568215110085227 2.1241159090909094 L 1.5402306019176137 2.4963886363636365 L 1.492503329190341 2.4963886363636365 L 1.3895487837357954 2.1841159090909095 L 1.28659423828125 2.4963886363636365 L 1.238185147372159 2.4963886363636365 L 1.12159423828125 2.1241159090909094 L 1.170003329190341 2.1241159090909094 L 1.2627306019176137 2.4479795454545457 L 1.3670487837357954 2.1241159090909094 L 1.4147760564630683 2.1241159090909094 L 1.5177306019176136 2.4486613636363637 L 1.609776056463068 2.1241159090909094 L 1.6568215110085227 2.1241159090909094 M 1.704891357421875 2.4895704545454547 Q 1.6950049937855112 2.479343181818182 1.6950049937855112 2.464343181818182 Q 1.6950049937855112 2.449343181818182 1.704891357421875 2.439456818181818 Q 1.7147777210582384 2.4295704545454546 1.7297777210582386 2.4295704545454546 Q 1.7440959028764205 2.4295704545454546 1.753982266512784 2.439456818181818 Q 1.7638686301491477 2.449343181818182 1.7638686301491477 2.464343181818182 Q 1.7638686301491477 2.479343181818182 1.753982266512784 2.4895704545454547 Q 1.7440959028764205 2.4997977272727274 1.7297777210582386 2.4997977272727274 Q 1.7147777210582384 2.4997977272727274 1.704891357421875 2.4895704545454547 M 2.1293278364701704 2.1585477272727274 Q 2.1716005637428974 2.1997977272727276 2.1716005637428974 2.2782068181818182 L 2.1716005637428974 2.4963886363636365 L 2.124555109197443 2.4963886363636365 L 2.124555109197443 2.2836613636363636 Q 2.124555109197443 2.2229795454545456 2.094214200106534 2.1909340909090913 Q 2.063873291015625 2.1588886363636366 2.011373291015625 2.1588886363636366 Q 1.9575096546519883 2.1588886363636366 1.9254642001065339 2.1929795454545458 Q 1.8934187455610794 2.227070454545455 1.8934187455610794 2.2932068181818184 L 1.8934187455610794 2.4963886363636365 L 1.8456914728338065 2.4963886363636365 L 1.8456914728338065 2.1241159090909094 L 1.8934187455610794 2.1241159090909094 L 1.8934187455610794 2.187525 Q 1.9111460182883522 2.153434090909091 1.944555109197443 2.1353659090909094 Q 1.9779642001065338 2.1172977272727276 2.020236927379261 2.1172977272727276 Q 2.087055109197443 2.1172977272727276 2.1293278364701704 2.1585477272727274 M 2.2765975674715904 2.043661363636364 Q 2.2663702947443176 2.033434090909091 2.2663702947443176 2.018434090909091 Q 2.2663702947443176 2.0034340909090913 2.2765975674715904 1.9935477272727273 Q 2.286824840198863 1.9836613636363638 2.3011430220170452 1.9836613636363638 Q 2.315461203835227 1.9836613636363638 2.3256884765624997 1.9935477272727273 Q 2.3359157492897724 2.0034340909090913 2.3359157492897724 2.018434090909091 Q 2.3359157492897724 2.033434090909091 2.3256884765624997 2.043661363636364 Q 2.315461203835227 2.0538886363636366 2.3011430220170452 2.0538886363636366 Q 2.286824840198863 2.0538886363636366 2.2765975674715904 2.043661363636364 M 2.325006658380681 2.1241159090909094 L 2.325006658380681 2.4963886363636365 L 2.277279385653409 2.4963886363636365 L 2.277279385653409 2.1241159090909094 L 2.325006658380681 2.1241159090909094 M 2.7402365944602267 2.1241159090909094 L 2.519327503551136 2.6716159090909093 L 2.4695547762784087 2.6716159090909093 L 2.541827503551136 2.494343181818182 L 2.389100230823863 2.1241159090909094 L 2.441600230823863 2.1241159090909094 L 2.568418412642045 2.441843181818182 L 2.6911456853693174 2.1241159090909094 L 2.7402365944602267 2.1241159090909094 M 2.806020396839488 2.2090022727272727 Q 2.8288613059303973 2.1657068181818184 2.869429487748579 2.1421840909090912 Q 2.909997669566761 2.118661363636364 2.961134033203124 2.118661363636364 Q 3.0143158513849424 2.118661363636364 3.0528385786576697 2.1432068181818185 Q 3.091361305930397 2.167752272727273 3.1084067604758516 2.205934090909091 L 3.1084067604758516 2.1241159090909094 L 3.1561340332031245 2.1241159090909094 L 3.1561340332031245 2.4963886363636365 L 3.1084067604758516 2.4963886363636365 L 3.1084067604758516 2.4138886363636365 Q 3.090679487748579 2.4520704545454546 3.0521567604758517 2.4769568181818182 Q 3.0136340332031244 2.501843181818182 2.960452215021306 2.501843181818182 Q 2.909997669566761 2.501843181818182 2.869429487748579 2.4779795454545455 Q 2.8288613059303973 2.454115909090909 2.806020396839488 2.4104795454545456 Q 2.783179487748579 2.366843181818182 2.783179487748579 2.3095704545454545 Q 2.783179487748579 2.2522977272727274 2.806020396839488 2.2090022727272727 M 3.0899976695667606 2.231161363636364 Q 3.07158857865767 2.1970704545454547 3.0398840332031245 2.1786613636363636 Q 3.008179487748579 2.160252272727273 2.969997669566761 2.160252272727273 Q 2.9304522150213064 2.160252272727273 2.8990885786576697 2.1779795454545456 Q 2.8677249422940334 2.1957068181818182 2.8496567604758516 2.229456818181818 Q 2.8315885786576698 2.2632068181818186 2.8315885786576698 2.3095704545454545 Q 2.8315885786576698 2.355252272727273 2.8496567604758516 2.389684090909091 Q 2.8677249422940334 2.4241159090909092 2.8990885786576697 2.442184090909091 Q 2.9304522150213064 2.460252272727273 2.969997669566761 2.460252272727273 Q 3.008179487748579 2.460252272727273 3.0398840332031245 2.441843181818182 Q 3.07158857865767 2.4234340909090912 3.0899976695667606 2.389343181818182 Q 3.1084067604758516 2.355252272727273 3.1084067604758516 2.310252272727273 Q 3.1084067604758516 2.265252272727273 3.0899976695667606 2.231161363636364 M 3.6006711647727268 2.328661363636364 L 3.29180752840909 2.328661363636364 Q 3.2938529829545447 2.370934090909091 3.3122620738636357 2.4009340909090913 Q 3.3306711647727267 2.430934090909091 3.3606711647727265 2.446275 Q 3.390671164772727 2.4616159090909093 3.426125710227272 2.4616159090909093 Q 3.4724893465909084 2.4616159090909093 3.504193892045454 2.4391159090909094 Q 3.5358984374999993 2.4166159090909094 3.546125710227272 2.378434090909091 L 3.5965802556818174 2.378434090909091 Q 3.5829438920454537 2.4329795454545455 3.538284801136363 2.467411363636364 Q 3.4936257102272723 2.501843181818182 3.426125710227272 2.501843181818182 Q 3.373625710227272 2.501843181818182 3.332034801136363 2.4783204545454547 Q 3.2904438920454537 2.4547977272727275 3.2669211647727265 2.411502272727273 Q 3.2433984374999993 2.368206818181818 3.2433984374999993 2.310252272727273 Q 3.2433984374999993 2.2522977272727274 3.2665802556818173 2.208661363636364 Q 3.2897620738636357 2.165025 3.3313529829545447 2.141843181818182 Q 3.3729438920454538 2.118661363636364 3.426125710227272 2.118661363636364 Q 3.47930752840909 2.118661363636364 3.519193892045454 2.141843181818182 Q 3.5590802556818177 2.165025 3.5805575284090905 2.2042295454545457 Q 3.602034801136363 2.243434090909091 3.602034801136363 2.291161363636364 Q 3.602034801136363 2.3157068181818183 3.6006711647727268 2.328661363636364 M 3.5369211647727266 2.2188886363636366 Q 3.5195348011363627 2.189570454545455 3.489534801136363 2.1745704545454547 Q 3.459534801136363 2.1595704545454546 3.4240802556818175 2.1595704545454546 Q 3.3708984374999993 2.1595704545454546 3.333398437499999 2.1936613636363638 Q 3.2958984374999996 2.227752272727273 3.29180752840909 2.2897977272727275 L 3.553625710227272 2.2897977272727275 Q 3.5543075284090904 2.2482068181818184 3.5369211647727266 2.2188886363636366 M 3.712836581143465 2.472184090909091 Q 3.6722683993252834 2.4425250000000003 3.667495672052556 2.3913886363636365 L 3.7165865811434653 2.3913886363636365 Q 3.719995672052556 2.422752272727273 3.746245672052556 2.442184090909091 Q 3.772495672052556 2.4616159090909093 3.816813853870738 2.4616159090909093 Q 3.855677490234374 2.4616159090909093 3.877836581143465 2.4432068181818183 Q 3.899995672052556 2.4247977272727272 3.899995672052556 2.3975250000000004 Q 3.899995672052556 2.378434090909091 3.8877229447798287 2.3661613636363636 Q 3.8754502175071015 2.3538886363636364 3.8567002175071012 2.3467295454545454 Q 3.8379502175071014 2.3395704545454548 3.8059047629616467 2.3313886363636365 Q 3.7643138538707377 2.3204795454545457 3.738404762961647 2.3095704545454545 Q 3.712495672052556 2.2986613636363638 3.694427490234374 2.277184090909091 Q 3.6763593084161923 2.2557068181818183 3.6763593084161923 2.2195704545454547 Q 3.6763593084161923 2.1922977272727273 3.692722944779829 2.1691159090909093 Q 3.709086581143465 2.145934090909091 3.7390865811434653 2.1322977272727273 Q 3.769086581143465 2.118661363636364 3.807268399325283 2.118661363636364 Q 3.867268399325283 2.118661363636364 3.9040865811434653 2.149002272727273 Q 3.940904762961647 2.179343181818182 3.9436320356889194 2.2325250000000003 L 3.895904762961647 2.2325250000000003 Q 3.8938593084161925 2.1997977272727276 3.870336581143465 2.179684090909091 Q 3.8468138538707377 2.1595704545454546 3.8059047629616467 2.1595704545454546 Q 3.769768399325283 2.1595704545454546 3.747268399325283 2.176615909090909 Q 3.724768399325283 2.1936613636363638 3.724768399325283 2.2188886363636366 Q 3.724768399325283 2.240706818181818 3.738063853870738 2.254684090909091 Q 3.7513593084161925 2.268661363636364 3.7711320356889195 2.276502272727273 Q 3.790904762961647 2.284343181818182 3.8243138538707377 2.2938886363636364 Q 3.8645411265980107 2.3047977272727276 3.8884047629616467 2.3150250000000003 Q 3.912268399325283 2.325252272727273 3.9293138538707377 2.345025 Q 3.9463593084161923 2.3647977272727276 3.9470411265980108 2.3975250000000004 Q 3.9470411265980108 2.427525 3.930677490234374 2.4510477272727274 Q 3.9143138538707376 2.4745704545454545 3.884995672052556 2.488206818181818 Q 3.855677490234374 2.501843181818182 3.817495672052556 2.501843181818182 Q 3.753404762961647 2.501843181818182 3.712836581143465 2.472184090909091 M 4.099093239524147 2.164343181818182 L 4.099093239524147 2.3954795454545454 Q 4.099093239524147 2.4295704545454546 4.112047784978692 2.4425250000000003 Q 4.1250023304332375 2.4554795454545455 4.157729603160511 2.4554795454545455 L 4.201365966796875 2.4554795454545455 L 4.201365966796875 2.4963886363636365 L 4.15022960316051 2.4963886363636365 Q 4.0997750577059655 2.4963886363636365 4.07522960316051 2.4728659090909093 Q 4.050684148615056 2.449343181818182 4.050684148615056 2.3954795454545454 L 4.050684148615056 2.164343181818182 L 3.9988659667968744 2.164343181818182 L 3.9988659667968744 2.1241159090909094 L 4.050684148615056 2.1241159090909094 L 4.050684148615056 2.030706818181818 L 4.099093239524147 2.030706818181818 L 4.099093239524147 2.1241159090909094 L 4.201365966796875 2.1241159090909094 L 4.201365966796875 2.164343181818182 L 4.099093239524147 2.164343181818182 M 4.2808101029829535 2.2090022727272727 Q 4.303651012073862 2.1657068181818184 4.3442191938920445 2.1421840909090912 Q 4.384787375710226 2.118661363636364 4.43592373934659 2.118661363636364 Q 4.489105557528408 2.118661363636364 4.5276282848011355 2.1432068181818185 Q 4.566151012073862 2.167752272727273 4.583196466619317 2.205934090909091 L 4.583196466619317 2.1241159090909094 L 4.630923739346589 2.1241159090909094 L 4.630923739346589 2.4963886363636365 L 4.583196466619317 2.4963886363636365 L 4.583196466619317 2.4138886363636365 Q 4.565469193892044 2.4520704545454546 4.526946466619317 2.4769568181818182 Q 4.48842373934659 2.501843181818182 4.435241921164772 2.501843181818182 Q 4.384787375710226 2.501843181818182 4.3442191938920445 2.4779795454545455 Q 4.303651012073862 2.454115909090909 4.2808101029829535 2.4104795454545456 Q 4.257969193892045 2.366843181818182 4.257969193892045 2.3095704545454545 Q 4.257969193892045 2.2522977272727274 4.2808101029829535 2.2090022727272727 M 4.564787375710226 2.231161363636364 Q 4.546378284801135 2.1970704545454547 4.514673739346589 2.1786613636363636 Q 4.482969193892044 2.160252272727273 4.444787375710226 2.160252272727273 Q 4.405241921164771 2.160252272727273 4.373878284801135 2.1779795454545456 Q 4.342514648437499 2.1957068181818182 4.324446466619317 2.229456818181818 Q 4.306378284801135 2.2632068181818186 4.306378284801135 2.3095704545454545 Q 4.306378284801135 2.355252272727273 4.324446466619317 2.389684090909091 Q 4.342514648437499 2.4241159090909092 4.373878284801135 2.442184090909091 Q 4.405241921164771 2.460252272727273 4.444787375710226 2.460252272727273 Q 4.482969193892044 2.460252272727273 4.514673739346589 2.441843181818182 Q 4.546378284801135 2.4234340909090912 4.564787375710226 2.389343181818182 Q 4.583196466619317 2.355252272727273 4.583196466619317 2.310252272727273 Q 4.583196466619317 2.265252272727273 4.564787375710226 2.231161363636364 M 4.8020517800071 2.164343181818182 L 4.8020517800071 2.3954795454545454 Q 4.8020517800071 2.4295704545454546 4.815006325461646 2.4425250000000003 Q 4.827960870916192 2.4554795454545455 4.860688143643464 2.4554795454545455 L 4.904324507279828 2.4554795454545455 L 4.904324507279828 2.4963886363636365 L 4.8531881436434645 2.4963886363636365 Q 4.802733598188919 2.4963886363636365 4.778188143643464 2.4728659090909093 Q 4.75364268909801 2.449343181818182 4.75364268909801 2.3954795454545454 L 4.75364268909801 2.164343181818182 L 4.701824507279828 2.164343181818182 L 4.701824507279828 2.1241159090909094 L 4.75364268909801 2.1241159090909094 L 4.75364268909801 2.030706818181818 L 4.8020517800071 2.030706818181818 L 4.8020517800071 2.1241159090909094 L 4.904324507279828 2.1241159090909094 L 4.904324507279828 2.164343181818182 L 4.8020517800071 2.164343181818182 M 5.318200461647725 2.328661363636364 L 5.009336825284089 2.328661363636364 Q 5.011382279829544 2.370934090909091 5.029791370738635 2.4009340909090913 Q 5.048200461647726 2.430934090909091 5.078200461647726 2.446275 Q 5.1082004616477255 2.4616159090909093 5.1436550071022715 2.4616159090909093 Q 5.1900186434659075 2.4616159090909093 5.221723188920453 2.4391159090909094 Q 5.253427734374998 2.4166159090909094 5.263655007102271 2.378434090909091 L 5.3141095525568165 2.378434090909091 Q 5.300473188920453 2.4329795454545455 5.255814098011362 2.467411363636364 Q 5.211155007102271 2.501843181818182 5.1436550071022715 2.501843181818182 Q 5.091155007102271 2.501843181818182 5.049564098011362 2.4783204545454547 Q 5.007973188920453 2.4547977272727275 4.984450461647726 2.411502272727273 Q 4.960927734374999 2.368206818181818 4.960927734374999 2.310252272727273 Q 4.960927734374999 2.2522977272727274 4.984109552556816 2.208661363636364 Q 5.007291370738635 2.165025 5.048882279829544 2.141843181818182 Q 5.090473188920453 2.118661363636364 5.1436550071022715 2.118661363636364 Q 5.196836825284089 2.118661363636364 5.236723188920453 2.141843181818182 Q 5.276609552556817 2.165025 5.29808682528409 2.2042295454545457 Q 5.319564098011362 2.243434090909091 5.319564098011362 2.291161363636364 Q 5.319564098011362 2.3157068181818183 5.318200461647725 2.328661363636364 M 5.254450461647726 2.2188886363636366 Q 5.237064098011362 2.189570454545455 5.207064098011362 2.1745704545454547 Q 5.177064098011362 2.1595704545454546 5.141609552556817 2.1595704545454546 Q 5.088427734374998 2.1595704545454546 5.050927734374999 2.1936613636363638 Q 5.013427734374998 2.227752272727273 5.009336825284089 2.2897977272727275 L 5.271155007102271 2.2897977272727275 Q 5.2718368252840895 2.2482068181818184 5.254450461647726 2.2188886363636366 M 5.430365878018464 2.472184090909091 Q 5.389797696200282 2.4425250000000003 5.3850249689275556 2.3913886363636365 L 5.434115878018464 2.3913886363636365 Q 5.437524968927555 2.422752272727273 5.463774968927555 2.442184090909091 Q 5.490024968927555 2.4616159090909093 5.534343150745737 2.4616159090909093 Q 5.573206787109373 2.4616159090909093 5.595365878018464 2.4432068181818183 Q 5.6175249689275555 2.4247977272727272 5.6175249689275555 2.3975250000000004 Q 5.6175249689275555 2.378434090909091 5.605252241654828 2.3661613636363636 Q 5.5929795143821 2.3538886363636364 5.5742295143821 2.3467295454545454 Q 5.5554795143821005 2.3395704545454548 5.523434059836646 2.3313886363636365 Q 5.481843150745737 2.3204795454545457 5.455934059836646 2.3095704545454545 Q 5.4300249689275555 2.2986613636363638 5.411956787109373 2.277184090909091 Q 5.393888605291192 2.2557068181818183 5.393888605291192 2.2195704545454547 Q 5.393888605291192 2.1922977272727273 5.4102522416548275 2.1691159090909093 Q 5.426615878018464 2.145934090909091 5.456615878018464 2.1322977272727273 Q 5.486615878018465 2.118661363636364 5.524797696200283 2.118661363636364 Q 5.584797696200282 2.118661363636364 5.621615878018464 2.149002272727273 Q 5.658434059836646 2.179343181818182 5.6611613325639185 2.2325250000000003 L 5.613434059836646 2.2325250000000003 Q 5.611388605291191 2.1997977272727276 5.587865878018464 2.179684090909091 Q 5.564343150745737 2.1595704545454546 5.523434059836646 2.1595704545454546 Q 5.487297696200282 2.1595704545454546 5.464797696200282 2.176615909090909 Q 5.442297696200282 2.1936613636363638 5.442297696200282 2.2188886363636366 Q 5.442297696200282 2.240706818181818 5.455593150745737 2.254684090909091 Q 5.468888605291191 2.268661363636364 5.488661332563919 2.276502272727273 Q 5.508434059836646 2.284343181818182 5.541843150745737 2.2938886363636364 Q 5.582070423473009 2.3047977272727276 5.605934059836646 2.3150250000000003 Q 5.629797696200282 2.325252272727273 5.646843150745737 2.345025 Q 5.663888605291191 2.3647977272727276 5.66457042347301 2.3975250000000004 Q 5.66457042347301 2.427525 5.648206787109373 2.4510477272727274 Q 5.631843150745737 2.4745704545454545 5.602524968927555 2.488206818181818 Q 5.573206787109373 2.501843181818182 5.535024968927555 2.501843181818182 Q 5.470934059836646 2.501843181818182 5.430365878018464 2.472184090909091 M 5.737872536399146 2.4895704545454547 Q 5.727986172762782 2.479343181818182 5.727986172762782 2.464343181818182 Q 5.727986172762782 2.449343181818182 5.737872536399146 2.439456818181818 Q 5.747758900035509 2.4295704545454546 5.762758900035509 2.4295704545454546 Q 5.777077081853691 2.4295704545454546 5.786963445490055 2.439456818181818 Q 5.796849809126418 2.449343181818182 5.796849809126418 2.464343181818182 Q 5.796849809126418 2.479343181818182 5.786963445490055 2.4895704545454547 Q 5.777077081853691 2.4997977272727274 5.762758900035509 2.4997977272727274 Q 5.747758900035509 2.4997977272727274 5.737872536399146 2.4895704545454547 M 5.880036288174714 2.2090022727272727 Q 5.903218106356532 2.1657068181818184 5.944127197265623 2.1421840909090912 Q 5.985036288174714 2.118661363636364 6.037536288174714 2.118661363636364 Q 6.1063999245383505 2.118661363636364 6.151059015447442 2.1527522727272728 Q 6.195718106356532 2.186843181818182 6.208672651811078 2.2454795454545455 L 6.157536288174714 2.2454795454545455 Q 6.14799083362926 2.205252272727273 6.116286288174714 2.182411363636364 Q 6.084581742720169 2.1595704545454546 6.037536288174714 2.1595704545454546 Q 6.000036288174714 2.1595704545454546 5.970036288174714 2.176615909090909 Q 5.940036288174714 2.1936613636363638 5.922649924538351 2.2274113636363637 Q 5.905263560901987 2.2611613636363637 5.905263560901987 2.310252272727273 Q 5.905263560901987 2.359343181818182 5.922649924538351 2.393434090909091 Q 5.940036288174714 2.427525 5.970036288174714 2.4445704545454547 Q 6.000036288174714 2.4616159090909093 6.037536288174714 2.4616159090909093 Q 6.084581742720169 2.4616159090909093 6.116286288174714 2.438775 Q 6.14799083362926 2.415934090909091 6.157536288174714 2.375025 L 6.208672651811078 2.375025 Q 6.195718106356532 2.4322977272727275 6.150718106356532 2.4670704545454547 Q 6.105718106356532 2.501843181818182 6.037536288174714 2.501843181818182 Q 5.985036288174714 2.501843181818182 5.944127197265623 2.4783204545454547 Q 5.903218106356532 2.4547977272727275 5.880036288174714 2.411502272727273 Q 5.856854469992896 2.368206818181818 5.856854469992896 2.310252272727273 Q 5.856854469992896 2.2522977272727274 5.880036288174714 2.2090022727272727 M 6.36513361150568 2.4783204545454547 Q 6.323201793323862 2.4547977272727275 6.298997247869316 2.411502272727273 Q 6.274792702414771 2.368206818181818 6.274792702414771 2.310252272727273 Q 6.274792702414771 2.2522977272727274 6.299338156960226 2.2090022727272727 Q 6.32388361150568 2.1657068181818184 6.366156338778407 2.1421840909090912 Q 6.408429066051134 2.118661363636364 6.4609290660511345 2.118661363636364 Q 6.513429066051135 2.118661363636364 6.556042702414771 2.1421840909090912 Q 6.598656338778407 2.1657068181818184 6.622860884232953 2.2090022727272727 Q 6.6470654296874985 2.2522977272727274 6.6470654296874985 2.310252272727273 Q 6.6470654296874985 2.367525 6.622519975142044 2.4111613636363636 Q 6.597974520596589 2.4547977272727275 6.555019975142043 2.4783204545454547 Q 6.512065429687498 2.501843181818182 6.4595654296874985 2.501843181818182 Q 6.407065429687498 2.501843181818182 6.36513361150568 2.4783204545454547 M 6.527747247869316 2.4435477272727275 Q 6.559110884232953 2.426843181818182 6.5785427024147705 2.3930931818181818 Q 6.597974520596589 2.359343181818182 6.597974520596589 2.310252272727273 Q 6.597974520596589 2.2611613636363637 6.57888361150568 2.2274113636363637 Q 6.559792702414771 2.1936613636363638 6.528429066051134 2.1769568181818184 Q 6.497065429687498 2.160252272727273 6.460247247869316 2.160252272727273 Q 6.423429066051135 2.160252272727273 6.392065429687499 2.1769568181818184 Q 6.360701793323861 2.1936613636363638 6.341951793323862 2.2274113636363637 Q 6.323201793323862 2.2611613636363637 6.323201793323862 2.310252272727273 Q 6.323201793323862 2.359343181818182 6.341951793323862 2.3930931818181818 Q 6.360701793323861 2.426843181818182 6.391724520596589 2.4435477272727275 Q 6.422747247869316 2.460252272727273 6.4595654296874985 2.460252272727273 Q 6.49638361150568 2.460252272727273 6.527747247869316 2.4435477272727275 M 7.284244162819601 2.1585477272727274 Q 7.3254941628196 2.1997977272727276 7.3254941628196 2.2782068181818182 L 7.3254941628196 2.4963886363636365 L 7.278448708274146 2.4963886363636365 L 7.278448708274146 2.2836613636363636 Q 7.278448708274146 2.2229795454545456 7.249130526455964 2.1909340909090913 Q 7.219812344637782 2.1588886363636366 7.169357799183237 2.1588886363636366 Q 7.1168577991832365 2.1588886363636366 7.0854941628196 2.1936613636363638 Q 7.054130526455964 2.228434090909091 7.054130526455964 2.294570454545455 L 7.054130526455964 2.4963886363636365 L 7.0070850719105096 2.4963886363636365 L 7.0070850719105096 2.2836613636363636 Q 7.0070850719105096 2.2229795454545456 6.977766890092328 2.1909340909090913 Q 6.948448708274146 2.1588886363636366 6.897312344637783 2.1588886363636366 Q 6.844812344637782 2.1588886363636366 6.813448708274146 2.1936613636363638 Q 6.78208507191051 2.228434090909091 6.78208507191051 2.294570454545455 L 6.78208507191051 2.4963886363636365 L 6.734357799183237 2.4963886363636365 L 6.734357799183237 2.1241159090909094 L 6.78208507191051 2.1241159090909094 L 6.78208507191051 2.1882068181818184 Q 6.7998123446377825 2.153434090909091 6.832539617365055 2.1353659090909094 Q 6.865266890092328 2.1172977272727276 6.9054941628196005 2.1172977272727276 Q 6.953903253728692 2.1172977272727276 6.990380526455964 2.1404795454545456 Q 7.026857799183237 2.163661363636364 7.043221435546873 2.208661363636364 Q 7.058221435546873 2.164343181818182 7.094698708274146 2.1408204545454548 Q 7.131175981001419 2.1172977272727276 7.177539617365055 2.1172977272727276 Q 7.242994162819601 2.1172977272727276 7.284244162819601 2.1585477272727274" fill="#ffffff" fill-rule="nonzero"></path></g><g clip-path="url(#SvgjsClipPath1015)"><g clip-path="url(#SvgjsClipPath1013251854ea-55b7-4735-861a-abf5b4533913)"><path d=" M -2.2786595909545984 0.3277652642690048 C -2.181246219670085 0.4557998623045293 -2.0500671610220653 0.5541413767905995 -1.899854140409913 0.6117458179189197 L -1.899854140409913 2.401806638611764 C -1.8735001652437542 2.4044749785973405 -1.8469320640293607 2.406912721300209 -1.8201498367667472 2.409119866720375 L -1.8201498367667472 0.6018630772316076 C -2.0236991637060586 0.4237849865842078 -2.1766743561274904 0.19516590514146348 -2.2636378251098783 -0.06092292696297979 L -2.5326460266185125 -0.06092292696297979 L -2.5326460266185125 2.3322321441730853 C -2.4486427307763585 2.337173514516742 -2.363651160865478 2.3444373289219174 -2.278659590954593 2.35417182849892 Z" fill="#ffffff" transform="matrix(1,0,0,1,0,0)" fill-rule="nonzero"></path></g><g clip-path="url(#SvgjsClipPath1013251854ea-55b7-4735-861a-abf5b4533913)"><path d=" M -2.7838158811865608 2.324968329767911 C -2.752586420614656 2.324968329767911 -2.7212910751048347 2.325314225691965 -2.6899298446570974 2.326006017540079 L -2.6899298446570974 1.2098492843150461 C -2.6899298446570974 1.2098492843150461 -2.6439751004610947 1.2626725332887296 -2.565407311996964 1.340350875091003 L -2.565407311996964 1.100299103796191 C -2.601578142912526 1.0486617837049848 -2.6367112860559176 0.9940102277041498 -2.670065535875599 0.9358008850558805 L -2.9490058917749877 0.9358008850558805 L -2.9490058917749877 2.3282790478981594 C -2.9144162993693916 2.3268460504984994 -2.879283156226 2.3258577764297677 -2.8432111527173123 2.325314225691965 C -2.823346843935804 2.324968329767911 -2.803581362561185 2.324968329767911 -2.7838158811865608 2.324968329767911 Z" fill="#ffffff" transform="matrix(1,0,0,1,0,0)" fill-rule="nonzero"></path></g><g clip-path="url(#SvgjsClipPath1013251854ea-55b7-4735-861a-abf5b4533913)"><path d=" M -1.9472418820055835 1.6979578468613938 L -1.9472418820055835 1.6781923654867696 C -2.032667704854073 1.6262216609797249 -2.1142459589007223 1.568175595600378 -2.191345576982203 1.5045031979072563 L -2.191345576982203 1.6604528459530454 C -2.1374846402363437 1.6999838087022963 -2.0805600538774307 1.7379829466450103 -2.0219554016016676 1.773412572009024 L -2.0219554016016676 2.388119042759837 C -1.997248549883386 2.3911826923729054 -1.9721958022410526 2.3941475145790996 -1.9472418820055883 2.396865268268109 L -1.9472418820055883 1.6979084331579617 Z" fill="#ffffff" transform="matrix(1,0,0,1,0,0)" fill-rule="nonzero"></path></g><g clip-path="url(#SvgjsClipPath1013251854ea-55b7-4735-861a-abf5b4533913)"><path d=" M -1.6582211306051473 2.41549423446369 L -1.404135867534349 2.41549423446369 L -1.404135867534349 1.9072248809152297 C -1.526502327131059 1.8787085303159086 -1.6451831821619387 1.8362135552608434 -1.7578391567332559 1.7805775590073245 L -1.7578391567332559 1.904408299819344 C -1.7247813891341917 1.9169593804922305 -1.6916247941282583 1.9279786363585827 -1.6582211306051473 1.937120171494346 Z" fill="#ffffff" transform="matrix(1,0,0,1,0,0)" fill-rule="nonzero"></path></g><g clip-path="url(#SvgjsClipPath1013251854ea-55b7-4735-861a-abf5b4533913)"><path d=" M -2.1287878284315136 2.41144231078189 C -2.130369066941485 2.41144231078189 -2.1319008917480167 2.4109481737475242 -2.1334327165545535 2.410849346340653 L -2.1531981979291777 2.407835110431021 L -2.1531981979291777 2.407835110431021 L -2.15468060903227 2.407835110431021 L -2.1563112612456807 2.407835110431021 L -2.1563112612456807 2.407835110431021 L -2.1760767426203 2.4051173567420125 L -2.1805733896330315 2.404474978597338 C -2.3999303543313957 2.373998037859047 -2.6212699957103878 2.3600734619125916 -2.8427170156829416 2.3628192266003154 C -3.5295674934511334 2.372701967287628 -3.9243335702058153 2.551480746321104 -3.9243335702058153 2.551480746321104 C -3.355104104497522 2.436277043100275 -2.770114579006907 2.42149385392519 -2.1957928102914845 2.5077990324831845 L -2.189369028844735 2.508787306551916 C -2.1832911433220374 2.5096273395103363 -2.1772132577993455 2.5105661998756332 -2.171085958573208 2.5115544739443623 L -2.171085958573208 2.5115544739443623 C -2.1705756915200487 2.5115280748876616 -2.1700644008198404 2.5115280748876616 -2.1695541337666766 2.5115544739443623 L -2.1678740678498363 2.5115544739443623 L -2.1678740678498363 2.5115544739443623 L -2.1495909975783087 2.5141734002264995 C -2.1474662083305374 2.5141734002264995 -2.1452920053793263 2.5147663646677394 -2.1431672161315545 2.5149640194814857 C -1.924055739083201 2.5454018641027423 -1.7029629305665357 2.559293463053997 -1.4817647956331879 2.556520944071633 C -0.7946178356443836 2.5466382033843216 -0.40000000000000524 2.367908838054282 -0.40000000000000524 2.367908838054282 C -0.9693180976142206 2.4830932825426837 -1.5543939332953158 2.4978263703845327 -2.128787828431519 2.41144231078189 Z" fill="#ffffff" transform="matrix(1,0,0,1,0,0)" fill-rule="nonzero"></path></g></g></g><defs><clipPath id="SvgjsClipPath1015"><path d=" M -3.924135915392067 -0.06092292696298229 h 3.5241359153920673 v 2.618234490289601 h -3.5241359153920673 Z"></path></clipPath><clipPath id="SvgjsClipPath1013251854ea-55b7-4735-861a-abf5b4533913"><path d=" M -3.924135915392067 -0.06092292696298229 L -0.3999999999999999 -0.06092292696298229 L -0.3999999999999999 2.5573115633266186 L -3.924135915392067 2.5573115633266186 Z"></path></clipPath></defs></svg>